<svg width="90" height="104" viewBox="0 0 90 104" fill="none" xmlns="http://www.w3.org/2000/svg">
<g clip-path="url(#clip0_2678_4074)">
<path d="M37.3 0H0V104H3.1C3.6 102.4 4.1 100.8 4.6 99.3C7.1 92.2 12.2 81.5 13.9 78.8C15.6 76.1 18.2 72.6 19.7 70.6C21 68.8 20.9 68.8 20.6 67.5C20.3 66.2 19.2 65.2 17.4 63.3C15.6 61.4 15 58.7 15.2 57.2C15.4 55.7 15.6 51 16.2 49.5C16.8 47.9 18.8 49.8 21.5 52.7C24.2 55.6 24.5 57.4 25.4 59.8C26.3 62.2 27.1 63.1 29.1 63.3C31.1 63.6 30.6 62.6 29.9 61.9C29.2 61.1 27.1 57.3 25.4 55.3C23.7 53.3 20.3 50.5 19.9 49.1C19.5 47.7 19.3 48.4 16.5 41.6C13.6 34.7 15 31.3 14.9 30.4C14.8 29.4 14.2 26.2 15.4 21.3C16.6 16.4 20 12.6 21.2 12C22.4 11.4 20.3 13.7 18.7 17.4C17.1 21.1 17.4 24.8 17.4 24.8C17.4 24.8 17.8 24.1 18.5 23.2C21.1 19.4 24.7 16.8 29.3 15.7C31.6 15.2 31.1 16 29.4 17C25.6 19 23.3 20.7 20.9 24.2C19.6 26.1 18.2 28.5 17.7 31.6C16.8 36.6 18.6 39.6 20.2 43.5C21.8 47.3 23.2 46.4 24.1 45.4C25 44.4 26.6 44.6 27.7 42.4C30 36.9 34.9 30.8 39.2 27C41.2 25.3 42.2 24.3 41.9 25.4C41.6 26.4 39.9 28.3 38.4 29.9C35.5 33 31.4 38.9 30 42.9C29.1 45.6 34 45 35.6 44.6C37.2 44.2 40.7 45 42.8 45.1C44.9 45.2 45.6 43.6 45.8 44C45.9 44.2 45.4 44.9 44.8 45.4C43.4 46.7 42.4 46.7 40.6 46.4C39.7 46.3 38.7 46.1 37.7 46.3C35.9 46.5 33.4 47.4 30.5 47.6C27.5 47.8 25.1 48.9 25.1 48.9C25.1 48.9 25.6 49.7 26.4 50.5C27.2 51.3 28.3 52.8 29.8 55.2C31.4 57.6 32.8 54.2 33.6 53.7C34.4 53.2 32.8 56.5 32.5 57.8C32.3 59.1 33.2 60.3 34.7 61.6C36.1 63 38.7 63.7 38.7 63.7C38.7 63.7 38.6 63.6 39.4 62.1C40.1 60.6 42 60.1 42 60.1C42 60.1 41.9 59.7 42.7 57.2C43.5 54.7 44.1 55.4 43.8 56.7C43.6 58 43.7 59.2 43.7 59.2H45C45 59.2 45.1 56.7 45.1 55.6C45.1 54.5 46.5 44.5 46.5 43.8C46.5 43.1 43.6 38.3 43.4 36.5C43.2 34.7 42.3 32.3 42.9 29C43.5 25.7 43.7 26.2 43.7 26.7C43.7 27.1 44 30.9 44.3 33.6C44.7 36.3 45.4 37.7 46.9 40.4C48 43 49 42 49.9 41.5C50.1 41.4 50.2 41.3 50.4 41.3C51.5 40.9 53.2 39.3 55.7 36.2C58.1 33.2 59.4 29.9 60.1 29.5C60.8 29.1 59.9 32 58.1 35.6C56.4 39.2 54.8 40.6 52.5 42.7C50.2 44.8 50.1 44.9 49.7 46.5C49.4 47.4 49.1 50 48.7 52.4C48.4 54.4 47 59.1 49.4 60.2C50.1 60.5 50.9 60.6 52.3 60.7C56.1 60.9 57.8 59.1 59.1 58C64.9 53.2 68.8 46.3 70.3 39.1C70.7 37.1 71.2 38.2 71.2 40.8C71.1 43.4 71 43.8 70.5 46.4C69.5 50.9 65.8 55.5 62.5 58.6C61.8 59.2 61.2 59.8 60.5 60.4C59.8 61 60 61.2 61 61.5C62.5 61.9 65 61.8 68.2 60.8C71.4 59.8 73.6 56.3 74.6 55.4C75.1 54.9 74.9 55.7 74.5 56.6C73.2 59.9 70.7 62 67.4 63.4C63.2 65.2 56.8 64.1 56.8 64.1C56.8 64.1 55.9 65.7 55.2 66.7C54.6 67.7 53.7 68.7 52 70.9C50.3 73.2 46 74.2 46 74.2C46 74.2 46.9 76.4 48 78.2C49 80 50.4 81.6 51 82C51.6 82.4 52.4 83.4 52.9 84.3C53.4 85.2 53.5 85.9 53.2 86.9C52.9 87.9 52.7 88.5 52 89.2C51.2 89.9 50.5 89.5 50.5 89.5C50.5 89.5 50.8 89.8 48.6 90.7C46.4 91.6 43.7 89.5 42.1 88.9C41.1 88.5 39.5 88.1 38.6 88.1C38 88.1 37.4 88.8 37.3 89C37.1 89.4 36.3 89.9 35.5 93.9C35.5 93.9 34.4 98.2 35.1 104.5H37.4C66.1 104.5 89.4 81.2 89.4 52.5C89.4 23.8 66 0 37.3 0Z" fill="black"/>
<path d="M44 64.3999C44.1 64.2999 44.3 64.1999 44.4 64.0999C45.3 63.4999 46.3 62.9999 46.3 62.9999C46.3 62.9999 45.8 62.8999 45.3 62.6999C45.2 62.6999 45 62.5999 44.8 62.5999C44.3 62.4999 43.7 62.5999 43.3 63.1999C42.6 63.9999 42.7 65.6999 42.7 65.6999C42.7 65.6999 43.1 65.0999 44 64.3999Z" fill="black"/>
</g>
<defs>
<clipPath id="clip0_2678_4074">
<rect width="89.3" height="104" fill="white"/>
</clipPath>
</defs>
</svg>
