<svg width="18" height="18" viewBox="0 0 18 18" fill="none" xmlns="http://www.w3.org/2000/svg">
  <path d="M13.6667 6H4.33333C3.59695 6 3 6.81403 3 7.81818V14.1818C3 15.186 3.59695 16 4.33333 16H13.6667C14.403 16 15 15.186 15 14.1818V7.81818C15 6.81403 14.403 6 13.6667 6Z" fill="white" />
  <path d="M6 7V4.77778C6 4.04107 6.31607 3.33453 6.87868 2.81359C7.44129 2.29266 8.20435 2 9 2C9.79565 2 10.5587 2.29266 11.1213 2.81359C11.6839 3.33453 12 4.04107 12 4.77778V7" stroke="white" stroke-width="2" stroke-linecap="round" stroke-linejoin="round" />
</svg>
  